<svg height="512" viewBox="0 0 512 512" width="512" xmlns="http://www.w3.org/2000/svg"><path d="m152 288v23a40 40 0 0 1 -80 0v-15a66.82 66.82 0 0 0 9.72-.97.019.019 0 0 1 .03 0c11.34-1.88 30.51-7.29 46.25-23.03z" fill="#ffdaaa"/><path d="m152 281v7l-24-16c-15.74 15.74-34.91 21.15-46.25 23.03a.019.019 0 0 0 -.03 0l-9.72.97v-15a40 40 0 0 1 80 0z" fill="#ffda44"/><path d="m81.72 295.03a66.82 66.82 0 0 1 -9.72.97z" fill="#e0e0e2"/><path d="m48 375.6h128a32 32 0 0 1 32 32v31.8a0 0 0 0 1 0 0h-192a0 0 0 0 1 0 0v-31.8a32 32 0 0 1 32-32z" fill="#91cc04"/><path d="m96 351h32v24h-32z" fill="#ffc477"/><path d="m81.72 295.03a66.82 66.82 0 0 1 -9.72.97z" fill="#e0e0e2"/><path d="m496 80v200h-232l-48 48v-48h-40v-200z" fill="#ffeb99"/><path d="m176 367.6h-40v-15.058a48.014 48.014 0 0 0 24-41.542v-30a48 48 0 0 0 -96 0v30a48.014 48.014 0 0 0 24 41.542v15.058h-40a40.045 40.045 0 0 0 -40 40v31.8a8 8 0 0 0 8 8h192a8 8 0 0 0 8-8v-31.8a40.045 40.045 0 0 0 -40-40zm-64-118.6a32.051 32.051 0 0 1 30.769 23.231l-10.331-6.887a8 8 0 0 0 -10.095 1c-14.369 14.369-32.211 19.2-42.343 20.83v-6.174a32.036 32.036 0 0 1 32-32zm-32 54.37c10.91-1.421 31.073-6.059 48.8-21.222l15.2 10.133v18.719a32 32 0 0 1 -64 0zm40 55.63v8h-16v-8zm80 72.4h-16v-15.4a8 8 0 0 0 -16 0v15.4h-113v-15.4a8 8 0 0 0 -16 0v15.4h-15v-23.8a24.027 24.027 0 0 1 24-24h128a24.027 24.027 0 0 1 24 24z"/><path d="m496 72h-320a8 8 0 0 0 -8 8v200a8 8 0 0 0 8 8h32v40a8 8 0 0 0 13.657 5.657l45.656-45.657h228.687a8 8 0 0 0 8-8v-200a8 8 0 0 0 -8-8zm-8 200h-224a8 8 0 0 0 -5.657 2.343l-34.343 34.343v-28.686a8 8 0 0 0 -8-8h-32v-184h304z"/><path d="m256 152h176a8 8 0 0 0 0-16h-176a8 8 0 0 0 0 16z"/><path d="m256 184h176a8 8 0 0 0 0-16h-176a8 8 0 0 0 0 16z"/><path d="m256 216h112a8 8 0 0 0 0-16h-112a8 8 0 0 0 0 16z"/><path d="m400 200h-8a8 8 0 0 0 0 16h8a8 8 0 0 0 0-16z"/></svg>