<svg width="513" height="512" viewBox="0 0 513 512" fill="none" xmlns="http://www.w3.org/2000/svg">
<circle cx="256" cy="256" r="256" fill="white"/>
<path d="M257 0C115.637 0 1 114.637 1 256C1 397.363 115.637 512 257 512C398.363 512 513 397.363 513 256C513 114.637 398.363 0 257 0ZM373.887 199.602C374 202.121 374.055 204.652 374.055 207.195C374.055 284.84 314.953 374.375 206.871 374.379H206.875H206.871C173.688 374.379 142.809 364.652 116.805 347.984C121.402 348.527 126.082 348.797 130.82 348.797C158.352 348.797 183.688 339.406 203.801 323.645C178.078 323.168 156.391 306.18 148.906 282.832C152.488 283.52 156.172 283.895 159.949 283.895C165.312 283.895 170.508 283.172 175.445 281.824C148.559 276.441 128.305 252.68 128.305 224.227C128.305 223.961 128.305 223.723 128.312 223.477C136.23 227.879 145.285 230.527 154.926 230.824C139.148 220.297 128.777 202.301 128.777 181.914C128.777 171.148 131.688 161.062 136.734 152.379C165.711 187.934 209.016 211.316 257.852 213.773C256.844 209.469 256.324 204.984 256.324 200.375C256.324 167.938 282.641 141.621 315.09 141.621C331.992 141.621 347.258 148.766 357.98 160.188C371.367 157.547 383.938 152.656 395.293 145.926C390.898 159.641 381.586 171.148 369.453 178.426C381.34 177.004 392.668 173.852 403.195 169.172C395.332 180.957 385.359 191.309 373.887 199.602V199.602Z" fill="#64B5F6"/>
</svg>
