<?xml version="1.0" encoding="UTF-8"?>
<svg xmlns="http://www.w3.org/2000/svg" viewBox="0 0 64 64" width="512" height="512"><g id="notification"><path d="M62,18A15.987,15.987,0,0,0,33.86,7.6a6.815,6.815,0,0,0-1.91-3.54A6.894,6.894,0,0,0,27,2a7.008,7.008,0,0,0-7,7v2.35A19.029,19.029,0,0,0,8,29V46.59l-5.71,5.7a1,1,0,0,0-.21,1.09A.987.987,0,0,0,3,54H18.06a9,9,0,0,0,17.88,0H51a.987.987,0,0,0,.92-.62,1,1,0,0,0-.21-1.09L46,46.59V34A16.021,16.021,0,0,0,62,18ZM22,9A5,5,0,0,1,32,9v1.27c-.07.12-.12.24-.19.36a18.566,18.566,0,0,0-9.81.06Zm5,51a7,7,0,0,1-6.92-6H22.1a5,5,0,0,0,9.8,0h2.02A7,7,0,0,1,27,60Zm-2.82-6h5.64a2.988,2.988,0,0,1-5.64,0Zm24.41-2H5.41l4.3-4.29A1.033,1.033,0,0,0,10,47V29A17.024,17.024,0,0,1,27,12a17.237,17.237,0,0,1,4,.48A16.036,16.036,0,0,0,30,18a15.81,15.81,0,0,0,2.85,9.08l-.83,3.7a1.008,1.008,0,0,0,1.33,1.16l3.05-1.15A16.052,16.052,0,0,0,44,33.86V47a1.033,1.033,0,0,0,.29.71ZM37.2,28.88a1.026,1.026,0,0,0-.63-.22,1.073,1.073,0,0,0-.35.06l-1.84.7.52-2.34a.982.982,0,0,0-.18-.81A13.868,13.868,0,0,1,32,18,14,14,0,1,1,46,32,13.838,13.838,0,0,1,37.2,28.88Z"/><path d="M46,21H46a3.19,3.19,0,0,0,3.16-2.907l.585-7.021a3.761,3.761,0,1,0-7.5,0l.585,7.021A3.19,3.19,0,0,0,46,21ZM44.705,9.568a1.76,1.76,0,0,1,3.049,1.338l-.585,7.021A1.177,1.177,0,0,1,46,19H46a1.177,1.177,0,0,1-1.166-1.073l-.585-7.021A1.737,1.737,0,0,1,44.705,9.568Z"/><path d="M46,23a3,3,0,1,0,3,3A3,3,0,0,0,46,23Zm0,4a1,1,0,1,1,1-1A1,1,0,0,1,46,27Z"/><path d="M30,33H14a1,1,0,0,0-1,1V48a1,1,0,0,0,1,1H30a1,1,0,0,0,1-1V34A1,1,0,0,0,30,33ZM19,35h6v3.382L22.447,37.1a1,1,0,0,0-.894,0L19,38.382ZM29,47H15V35h2v5a1,1,0,0,0,1.447.9L22,39.118,25.553,40.9A1,1,0,0,0,27,40V35h2Z"/></g></svg>
